<svg width="320" height="98" viewBox="0 0 320 98" fill="none" xmlns="http://www.w3.org/2000/svg">
<rect x="0.5" y="0.5" width="319" height="97" stroke="#D1D5DB"/>
<path fill-rule="evenodd" clip-rule="evenodd" d="M150.844 25.0266C150.783 25.0739 150.842 25.2609 150.971 25.4254C151.073 25.5566 151.151 25.737 151.185 25.9196C151.207 26.0343 151.253 26.0527 151.616 26.0895C153.738 26.3053 155.075 27.579 155.302 29.6006C155.34 29.9404 155.335 65.4264 155.297 65.8746C155.262 66.2827 155.085 66.7709 154.946 66.8447C154.797 66.9237 154.761 67.2364 154.893 67.304C155.099 67.4097 156.306 66.8302 157.081 66.253C158.072 65.5159 159.006 64.2092 159.279 63.1787C159.438 62.5793 159.432 62.7385 159.422 59.3061C159.418 57.5887 159.426 55.2655 159.44 54.1433C159.455 53.0212 159.474 48.3076 159.483 43.6685C159.508 30.6603 159.522 28.9327 159.605 28.5814C159.728 28.0648 159.906 27.6226 160.117 27.3101C160.518 26.7165 161.055 26.3472 161.692 26.2266C161.852 26.1961 162.212 26.19 163.787 26.1907C166.642 26.1919 167.196 26.2206 167.573 26.3871C167.798 26.4866 167.892 26.5336 168.003 26.6037C168.846 27.1346 169.344 28.0319 169.458 29.2256C169.519 29.8639 169.5 61.3881 169.439 61.8191C169.39 62.1608 169.164 62.8351 168.968 63.2266C168.813 63.5343 168.812 63.5638 168.946 63.6601C169.142 63.8004 169.279 63.7289 169.742 63.2447C170.773 62.1676 171.711 60.6997 172.435 59.0288C172.527 58.8174 172.565 58.7307 172.619 58.6094C172.788 58.232 173.204 57.0855 173.382 56.507C173.448 56.2937 173.707 55.3115 173.746 55.1261C173.761 55.0597 173.764 54.6095 173.756 54.0189C173.748 53.4716 173.736 47.8678 173.729 41.5661C173.715 29.7132 173.715 29.7167 173.805 29.2875C174.021 28.2567 174.386 27.5949 175.087 26.9594C175.619 26.4768 176.288 26.2167 177.246 26.1194C177.747 26.0685 177.702 26.1003 177.88 25.6673C177.983 25.4174 177.999 25.3576 178 25.1946C178.002 25.008 178.002 25.008 164.443 25.0017C153.621 24.9968 150.876 25.0018 150.844 25.0266ZM162.539 28.1051C162.431 28.1307 162.43 28.1323 162.406 28.2841C162.394 28.3555 162.386 35.9944 162.388 45.2595C162.389 54.5246 162.383 62.2172 162.374 62.354C162.264 63.9479 162.073 64.8537 161.655 65.7627C161.63 65.8174 161.573 65.9462 161.528 66.0488C161.377 66.3966 160.993 67.0323 160.751 67.3364C160.661 67.4493 160.53 67.6153 160.461 67.7053C160.208 68.0352 159.358 68.8223 158.941 69.1133C158.531 69.3989 158.405 69.4753 157.977 69.694C157.202 70.0904 156.542 70.3309 155.8 70.4874C155.39 70.5737 155.366 70.5748 153.488 70.5908C151.641 70.6064 151.489 70.5992 151.126 70.4786C149.261 69.8596 147.674 68.4837 146.791 66.7206C146.497 66.1326 146.336 65.6906 146.09 64.7923C146.011 64.5033 145.975 64.3307 145.876 63.7598C145.722 62.8723 145.787 60.9922 146.002 60.109C146.334 58.7502 146.716 57.745 147.192 56.9798C147.285 56.8292 147.392 56.6564 147.428 56.5957C147.525 56.4341 147.863 55.9932 148.086 55.7357C149.016 54.6655 150.205 53.9706 151.339 53.8328C151.723 53.7862 151.679 53.8577 151.679 53.2895C151.679 52.9398 151.67 52.7886 151.648 52.7674C151.611 52.7301 151.053 52.7275 150.573 52.7624C148.691 52.8992 147.329 53.3445 145.887 54.2945C145.36 54.6414 144.595 55.3224 144.214 55.7829C144.125 55.8909 144.004 56.0336 143.946 56.1C143.737 56.3383 143.335 56.969 143.112 57.4108C142.681 58.2616 142.551 58.6222 142.228 59.8604C141.956 60.9037 141.921 63.1197 142.157 64.4564C142.224 64.8384 142.552 66.0149 142.691 66.3722C143.413 68.2326 144.506 69.6847 146.037 70.8165C146.724 71.3242 147.235 71.609 148.403 72.1339C148.514 72.184 149.318 72.4472 149.693 72.5566C150.816 72.8838 151.917 73.0048 153.727 72.9999C155.142 72.996 155.747 72.9514 156.78 72.7748C157.121 72.7165 157.224 72.6931 157.71 72.5635C158.381 72.3844 159.115 72.1463 159.339 72.0349C159.431 71.9892 159.657 71.8887 159.841 71.8114C160.507 71.5312 161.61 70.8629 162.143 70.4154C162.241 70.3333 162.389 70.2108 162.472 70.1432C162.97 69.7365 163.897 68.7275 164.345 68.105C164.682 67.6375 164.689 67.6262 164.877 67.3086C165.187 66.7838 165.226 66.7141 165.354 66.4469C165.423 66.3032 165.511 66.1185 165.551 66.0364C165.718 65.688 165.823 65.4133 166.067 64.6853C166.322 63.9244 166.368 63.7367 166.494 62.9477C166.562 62.5282 166.562 62.5282 166.559 45.3498C166.557 29.7689 166.553 28.1678 166.517 28.1323C166.474 28.0891 162.715 28.0634 162.539 28.1051Z" fill="#1E1E1E"/>
</svg>
